REM DIRINDEX 1\2\4\18,1\2\4\19,1\2\5\20,1\2\5\21,1\2\6\22,1\2\6\23,1\2\7\24,1\2\8\25,1\2\9\26,1\2\10\27,1\2\10\28,1\3\11\29,1\3\11\30,1\3\11\31,1\3\11\32,1\3\12\33,1\3\12\34,1\3\12\35,1\3\12\36,1\3\13\37,1\3\13\38,1\3\13\39,1\3\13\40,1\3\14\41,1\3\14\42,1\3\15\43,1\3\15\44,1\3\16\45,1\3\16\46,1\3\17\47,1\3\17\48,1\3\17\49,1\3\17\50
REM DIRNAME cjc135,folder01,folder02,folder03,folder04,folder05,folder06,folder07,folder08,folder09,folder10,folder11,folder12,folder13,folder14,folder15,folder16,folder17,folder18,folder19,folder20,folder21,folder22,folder23,folder24,folder25,folder26,folder27,folder28,folder29,folder30,folder31,folder32,folder33,folder34,folder35,folder36,folder37,folder38,folder39,folder40,folder41,folder42,folder43,folder44,folder45,folder46,folder47,folder48,folder49
TITLE ""
FILE "05.mp3" MP3
  TRACK 01 AUDIO
    TITLE "0:"
    INDEX 01 00:00:00
  TRACK 02 AUDIO
    TITLE "20:cjc135_0801"
    INDEX 01 00:00:11
  TRACK 03 AUDIO
    TITLE "0:"
    INDEX 01 00:01:40
  TRACK 04 AUDIO
    TITLE "21:cjc135_0802"
    INDEX 01 00:01:64
  TRACK 05 AUDIO
    TITLE "0:"
    INDEX 01 00:05:42
  TRACK 06 AUDIO
    TITLE "20:cjc135_0803"
    INDEX 01 00:06:41
  TRACK 07 AUDIO
    TITLE "0:"
    INDEX 01 00:07:66
  TRACK 08 AUDIO
    TITLE "21:cjc135_0804"
    INDEX 01 00:08:15
  TRACK 09 AUDIO
    TITLE "0:"
    INDEX 01 00:10:61
  TRACK 10 AUDIO
    TITLE "20:cjc135_0805"
    INDEX 01 00:11:62
  TRACK 11 AUDIO
    TITLE "0:"
    INDEX 01 00:13:33
  TRACK 12 AUDIO
    TITLE "21:cjc135_0806"
    INDEX 01 00:13:59
  TRACK 13 AUDIO
    TITLE "0:"
    INDEX 01 00:21:51
  TRACK 14 AUDIO
    TITLE "20:cjc135_0807"
    INDEX 01 00:22:52
  TRACK 15 AUDIO
    TITLE "0:"
    INDEX 01 00:23:53
  TRACK 16 AUDIO
    TITLE "21:cjc135_0808"
    INDEX 01 00:24:02
  TRACK 17 AUDIO
    TITLE "0:"
    INDEX 01 00:26:03
  TRACK 18 AUDIO
    TITLE "20:cjc135_0809"
    INDEX 01 00:27:04
  TRACK 19 AUDIO
    TITLE "0:"
    INDEX 01 00:28:25
  TRACK 20 AUDIO
    TITLE "21:cjc135_0810"
    INDEX 01 00:28:49
  TRACK 21 AUDIO
    TITLE "0:"
    INDEX 01 00:30:73
  TRACK 22 AUDIO
    TITLE "20:cjc135_0811"
    INDEX 01 00:31:73
  TRACK 23 AUDIO
    TITLE "0:"
    INDEX 01 00:33:34
  TRACK 24 AUDIO
    TITLE "21:cjc135_0812"
    INDEX 01 00:33:58
  TRACK 25 AUDIO
    TITLE "0:"
    INDEX 01 00:36:56
  TRACK 26 AUDIO
    TITLE "20:cjc135_0813"
    INDEX 01 00:37:56
  TRACK 27 AUDIO
    TITLE "0:"
    INDEX 01 00:39:03
  TRACK 28 AUDIO
    TITLE "21:cjc135_0814"
    INDEX 01 00:39:27
  TRACK 29 AUDIO
    TITLE "0:"
    INDEX 01 00:41:61
  TRACK 30 AUDIO
    TITLE "20:cjc135_0815"
    INDEX 01 00:42:63
  TRACK 31 AUDIO
    TITLE "0:"
    INDEX 01 00:43:70
  TRACK 32 AUDIO
    TITLE "21:cjc135_0816"
    INDEX 01 00:44:20
  TRACK 33 AUDIO
    TITLE "0:"
    INDEX 01 00:49:63
  TRACK 34 AUDIO
    TITLE "20:cjc135_0817"
    INDEX 01 00:50:62
  TRACK 35 AUDIO
    TITLE "0:"
    INDEX 01 00:51:65
  TRACK 36 AUDIO
    TITLE "21:cjc135_0818"
    INDEX 01 00:52:18
  TRACK 37 AUDIO
    TITLE "0:"
    INDEX 01 00:53:72
  TRACK 38 AUDIO
    TITLE "20:cjc135_0819"
    INDEX 01 00:54:72
  TRACK 39 AUDIO
    TITLE "0:"
    INDEX 01 00:56:16
  TRACK 40 AUDIO
    TITLE "21:cjc135_0820"
    INDEX 01 00:56:39
  TRACK 41 AUDIO
    TITLE "0:"
    INDEX 01 01:01:25
  TRACK 42 AUDIO
    TITLE "20:cjc135_0821"
    INDEX 01 01:02:28
  TRACK 43 AUDIO
    TITLE "0:"
    INDEX 01 01:03:37
  TRACK 44 AUDIO
    TITLE "21:cjc135_0822"
    INDEX 01 01:03:63
  TRACK 45 AUDIO
    TITLE "0:"
    INDEX 01 01:06:43
  TRACK 46 AUDIO
    TITLE "21:cjc135_0823"
    INDEX 01 01:07:08
  TRACK 47 AUDIO
    TITLE "0:"
    INDEX 01 01:10:55
  TRACK 48 AUDIO
    TITLE "20:cjc135_0824"
    INDEX 01 01:11:56
  TRACK 49 AUDIO
    TITLE "0:"
    INDEX 01 01:13:00
  TRACK 50 AUDIO
    TITLE "21:cjc135_0825"
    INDEX 01 01:13:26
  TRACK 51 AUDIO
    TITLE "0:"
    INDEX 01 01:15:74
  TRACK 52 AUDIO
    TITLE "20:cjc135_0826"
    INDEX 01 01:16:71
  TRACK 53 AUDIO
    TITLE "0:"
    INDEX 01 01:18:06
  TRACK 54 AUDIO
    TITLE "21:cjc135_0827"
    INDEX 01 01:18:29
  TRACK 55 AUDIO
    TITLE "0:"
    INDEX 01 01:21:31
  TRACK 56 AUDIO
    TITLE "20:cjc135_0828"
    INDEX 01 01:22:33
  TRACK 57 AUDIO
    TITLE "0:"
    INDEX 01 01:23:44
  TRACK 58 AUDIO
    TITLE "21:cjc135_0829"
    INDEX 01 01:23:69
  TRACK 59 AUDIO
    TITLE "0:"
    INDEX 01 01:26:74
  TRACK 60 AUDIO
    TITLE "20:cjc135_0830"
    INDEX 01 01:28:00
  TRACK 61 AUDIO
    TITLE "0:"
    INDEX 01 01:29:05
  TRACK 62 AUDIO
    TITLE "21:cjc135_0831"
    INDEX 01 01:29:29
  TRACK 63 AUDIO
    TITLE "0:"
    INDEX 01 01:32:72
  TRACK 64 AUDIO
    TITLE "20:cjc135_0832"
    INDEX 01 01:33:70
  TRACK 65 AUDIO
    TITLE "0:"
    INDEX 01 01:35:02
  TRACK 66 AUDIO
    TITLE "21:cjc135_0833"
    INDEX 01 01:35:26
  TRACK 67 AUDIO
    TITLE "0:"
    INDEX 01 01:42:55
  TRACK 68 AUDIO
    TITLE "20:cjc135_0834"
    INDEX 01 01:43:54
  TRACK 69 AUDIO
    TITLE "0:"
    INDEX 01 01:44:60
  TRACK 70 AUDIO
    TITLE "21:cjc135_0835"
    INDEX 01 01:45:10
  TRACK 71 AUDIO
    TITLE "0:"
    INDEX 01 01:47:66
  TRACK 72 AUDIO
    TITLE "20:cjc135_0836"
    INDEX 01 01:48:67
  TRACK 73 AUDIO
    TITLE "0:"
    INDEX 01 01:50:37
  TRACK 74 AUDIO
    TITLE "21:cjc135_0837"
    INDEX 01 01:50:62
  TRACK 75 AUDIO
    TITLE "0:"
    INDEX 01 01:53:25
  TRACK 76 AUDIO
    TITLE "20:cjc135_0838"
    INDEX 01 01:54:25
  TRACK 77 AUDIO
    TITLE "0:"
    INDEX 01 01:55:36
  TRACK 78 AUDIO
    TITLE "21:cjc135_0839"
    INDEX 01 01:55:60
  TRACK 79 AUDIO
    TITLE "0:"
    INDEX 01 01:58:70
  TRACK 80 AUDIO
    TITLE "20:cjc135_0840"
    INDEX 01 01:59:69
  TRACK 81 AUDIO
    TITLE "0:"
    INDEX 01 02:01:03
  TRACK 82 AUDIO
    TITLE "21:cjc135_0841"
    INDEX 01 02:01:27
  TRACK 83 AUDIO
    TITLE "0:"
    INDEX 01 02:03:69
  TRACK 84 AUDIO
    TITLE "20:cjc135_0842"
    INDEX 01 02:04:70
  TRACK 85 AUDIO
    TITLE "0:"
    INDEX 01 02:06:20
  TRACK 86 AUDIO
    TITLE "21:cjc135_0843"
    INDEX 01 02:06:48
  TRACK 87 AUDIO
    TITLE "0:"
    INDEX 01 02:11:63
  TRACK 88 AUDIO
    TITLE "20:cjc135_0844"
    INDEX 01 02:12:62
  TRACK 89 AUDIO
    TITLE "0:"
    INDEX 01 02:13:73
  TRACK 90 AUDIO
    TITLE "21:cjc135_0845"
    INDEX 01 02:14:24
  TRACK 91 AUDIO
    TITLE "0:"
    INDEX 01 02:16:64
  TRACK 92 AUDIO
    TITLE "20:cjc135_0846"
    INDEX 01 02:17:67
  TRACK 93 AUDIO
    TITLE "0:"
    INDEX 01 02:19:11
  TRACK 94 AUDIO
    TITLE "21:cjc135_0847"
    INDEX 01 02:19:37
  TRACK 95 AUDIO
    TITLE "0:"
    INDEX 01 02:21:61
  TRACK 96 AUDIO
    TITLE "21:cjc135_0848"
    INDEX 01 02:22:15
  TRACK 97 AUDIO
    TITLE "0:"
    INDEX 01 02:25:14
  TRACK 98 AUDIO
    TITLE "20:cjc135_0849"
    INDEX 01 02:26:11
  TRACK 99 AUDIO
    TITLE "0:"
    INDEX 01 02:27:40
  TRACK 100 AUDIO
    TITLE "21:cjc135_0850"
    INDEX 01 02:27:65
  TRACK 101 AUDIO
    TITLE "0:"
    INDEX 01 02:30:38
  TRACK 102 AUDIO
    TITLE "20:cjc135_0851"
    INDEX 01 02:31:38
  TRACK 103 AUDIO
    TITLE "0:"
    INDEX 01 02:32:39
  TRACK 104 AUDIO
    TITLE "21:cjc135_0852"
    INDEX 01 02:32:63
  TRACK 105 AUDIO
    TITLE "0:"
    INDEX 01 02:35:14
